<mxfile host="app.diagrams.net" modified="2024-04-07T12:14:53.675Z" agent="Mozilla/5.0 (Macintosh; Intel Mac OS X 10_15_7) AppleWebKit/537.36 (KHTML, like Gecko) Chrome/123.0.0.0 Safari/537.36" etag="AT5_SY5iWZv8zZd5AGqg" version="24.2.2" type="device">
  <diagram name="Page-1" id="kuzdRpdBAsN8iNOsUWBB">
    <mxGraphModel dx="1224" dy="809" grid="1" gridSize="10" guides="1" tooltips="1" connect="1" arrows="1" fold="1" page="1" pageScale="1" pageWidth="850" pageHeight="1100" math="0" shadow="0">
      <root>
        <mxCell id="0" />
        <mxCell id="1" parent="0" />
        <mxCell id="pwKQtz1z0pktfYnzHD7Z-20" value="" style="rounded=0;whiteSpace=wrap;html=1;fillColor=#e1d5e7;strokeColor=#9673a6;" parent="1" vertex="1">
          <mxGeometry x="230" y="60" width="450" height="620" as="geometry" />
        </mxCell>
        <mxCell id="pwKQtz1z0pktfYnzHD7Z-13" style="edgeStyle=none;rounded=0;orthogonalLoop=1;jettySize=auto;html=1;exitX=1;exitY=0.3333333333333333;exitDx=0;exitDy=0;exitPerimeter=0;" parent="1" source="pwKQtz1z0pktfYnzHD7Z-1" target="pwKQtz1z0pktfYnzHD7Z-3" edge="1">
          <mxGeometry relative="1" as="geometry" />
        </mxCell>
        <mxCell id="pwKQtz1z0pktfYnzHD7Z-16" style="edgeStyle=none;rounded=0;orthogonalLoop=1;jettySize=auto;html=1;exitX=1;exitY=0.3333333333333333;exitDx=0;exitDy=0;exitPerimeter=0;" parent="1" source="pwKQtz1z0pktfYnzHD7Z-1" target="pwKQtz1z0pktfYnzHD7Z-6" edge="1">
          <mxGeometry relative="1" as="geometry" />
        </mxCell>
        <mxCell id="pwKQtz1z0pktfYnzHD7Z-1" value="Phamacy Owner" style="shape=umlActor;verticalLabelPosition=bottom;verticalAlign=top;html=1;outlineConnect=0;" parent="1" vertex="1">
          <mxGeometry x="120" y="300" width="30" height="60" as="geometry" />
        </mxCell>
        <mxCell id="pwKQtz1z0pktfYnzHD7Z-19" style="edgeStyle=none;rounded=0;orthogonalLoop=1;jettySize=auto;html=1;exitX=0;exitY=0.3333333333333333;exitDx=0;exitDy=0;exitPerimeter=0;entryX=1;entryY=0.5;entryDx=0;entryDy=0;" parent="1" source="pwKQtz1z0pktfYnzHD7Z-2" target="VGCTA5ZCN7HaFnqmtO-Z-9" edge="1">
          <mxGeometry relative="1" as="geometry">
            <mxPoint x="857.1199999999999" y="534.3199999999999" as="targetPoint" />
          </mxGeometry>
        </mxCell>
        <mxCell id="pwKQtz1z0pktfYnzHD7Z-2" value="POS System" style="shape=umlActor;verticalLabelPosition=bottom;verticalAlign=top;html=1;outlineConnect=0;" parent="1" vertex="1">
          <mxGeometry x="770" y="340" width="30" height="60" as="geometry" />
        </mxCell>
        <mxCell id="pwKQtz1z0pktfYnzHD7Z-3" value="&lt;span style=&quot;text-align: start; font-size: 10pt; font-family: &amp;quot;Times New Roman&amp;quot;, serif;&quot; lang=&quot;EN-US&quot;&gt;Access&amp;nbsp;&lt;/span&gt;&lt;span style=&quot;font-size: medium; text-align: start;&quot;&gt;&lt;/span&gt;&lt;br&gt;&lt;span style=&quot;font-size: medium; text-align: start;&quot;&gt;&lt;/span&gt;&lt;div&gt;&lt;span style=&quot;text-align: start; font-size: 10pt; font-family: &amp;quot;Times New Roman&amp;quot;, serif;&quot; lang=&quot;EN-US&quot;&gt;Analytics&lt;/span&gt;&lt;/div&gt;&lt;div&gt;&lt;span style=&quot;text-align: start; font-size: 10pt; font-family: &amp;quot;Times New Roman&amp;quot;, serif;&quot; lang=&quot;EN-US&quot;&gt;Dashboard&lt;/span&gt;&lt;/div&gt;" style="ellipse;whiteSpace=wrap;html=1;" parent="1" vertex="1">
          <mxGeometry x="395" y="120" width="120" height="80" as="geometry" />
        </mxCell>
        <mxCell id="pwKQtz1z0pktfYnzHD7Z-4" value="&lt;div style=&quot;text-align: start;&quot;&gt;&lt;span style=&quot;background-color: initial; font-size: 13.3333px;&quot;&gt;&lt;font face=&quot;Times New Roman, serif&quot;&gt;&amp;nbsp; &amp;nbsp;Select Phamacy&amp;nbsp;&lt;/font&gt;&lt;/span&gt;&lt;span style=&quot;font-family: &amp;quot;Times New Roman&amp;quot;, serif; background-color: initial; font-size: 13.3333px;&quot;&gt;or&amp;nbsp; &amp;nbsp; &amp;nbsp; &amp;nbsp;Phamacy Chain data&lt;/span&gt;&lt;/div&gt;&lt;span style=&quot;font-size: medium; text-align: start;&quot;&gt;&lt;/span&gt;" style="ellipse;whiteSpace=wrap;html=1;" parent="1" vertex="1">
          <mxGeometry x="300" y="280" width="125" height="80" as="geometry" />
        </mxCell>
        <mxCell id="pwKQtz1z0pktfYnzHD7Z-6" value="VIew Analytics" style="ellipse;whiteSpace=wrap;html=1;" parent="1" vertex="1">
          <mxGeometry x="290" y="570" width="120" height="80" as="geometry" />
        </mxCell>
        <mxCell id="pwKQtz1z0pktfYnzHD7Z-14" style="edgeStyle=none;rounded=0;orthogonalLoop=1;jettySize=auto;html=1;exitX=1;exitY=0.3333333333333333;exitDx=0;exitDy=0;exitPerimeter=0;entryX=0;entryY=0.5;entryDx=0;entryDy=0;" parent="1" source="pwKQtz1z0pktfYnzHD7Z-1" target="pwKQtz1z0pktfYnzHD7Z-4" edge="1">
          <mxGeometry relative="1" as="geometry" />
        </mxCell>
        <mxCell id="pwKQtz1z0pktfYnzHD7Z-17" style="edgeStyle=none;rounded=0;orthogonalLoop=1;jettySize=auto;html=1;exitX=0;exitY=0.3333333333333333;exitDx=0;exitDy=0;exitPerimeter=0;entryX=1.003;entryY=0.575;entryDx=0;entryDy=0;entryPerimeter=0;" parent="1" source="pwKQtz1z0pktfYnzHD7Z-2" target="pwKQtz1z0pktfYnzHD7Z-3" edge="1">
          <mxGeometry relative="1" as="geometry">
            <mxPoint x="621.8000000000002" y="235.44000000000005" as="targetPoint" />
          </mxGeometry>
        </mxCell>
        <mxCell id="pwKQtz1z0pktfYnzHD7Z-21" value="Pharmacy Analytics Dashboard" style="text;html=1;align=center;verticalAlign=middle;whiteSpace=wrap;rounded=0;" parent="1" vertex="1">
          <mxGeometry x="395" y="70" width="150" height="30" as="geometry" />
        </mxCell>
        <mxCell id="K7_UD0i-k_GSVYaRkXTu-4" value="&lt;span style=&quot;text-align: start; font-size: 10pt; font-family: &amp;quot;Times New Roman&amp;quot;, serif;&quot; lang=&quot;EN-US&quot;&gt;error message&lt;/span&gt;&lt;span style=&quot;font-size: medium; text-align: start;&quot;&gt;&lt;/span&gt;" style="ellipse;whiteSpace=wrap;html=1;" parent="1" vertex="1">
          <mxGeometry x="470" y="280" width="120" height="80" as="geometry" />
        </mxCell>
        <mxCell id="K7_UD0i-k_GSVYaRkXTu-5" value="" style="endArrow=none;dashed=1;html=1;rounded=0;" parent="1" source="pwKQtz1z0pktfYnzHD7Z-3" target="K7_UD0i-k_GSVYaRkXTu-4" edge="1">
          <mxGeometry width="50" height="50" relative="1" as="geometry">
            <mxPoint x="470.03999999999996" y="370.03999999999996" as="sourcePoint" />
            <mxPoint x="470" y="350" as="targetPoint" />
            <Array as="points" />
          </mxGeometry>
        </mxCell>
        <mxCell id="K7_UD0i-k_GSVYaRkXTu-6" value="&amp;lt;&amp;lt;extends&amp;gt;&amp;gt;" style="edgeLabel;html=1;align=center;verticalAlign=middle;resizable=0;points=[];" parent="K7_UD0i-k_GSVYaRkXTu-5" vertex="1" connectable="0">
          <mxGeometry x="0.018" y="-2" relative="1" as="geometry">
            <mxPoint as="offset" />
          </mxGeometry>
        </mxCell>
        <mxCell id="VGCTA5ZCN7HaFnqmtO-Z-9" value="&lt;span style=&quot;text-align: start; font-size: 10pt; font-family: &amp;quot;Times New Roman&amp;quot;, serif;&quot; lang=&quot;EN-US&quot;&gt;error message&lt;/span&gt;&lt;span style=&quot;font-size: medium; text-align: start;&quot;&gt;&lt;/span&gt;" style="ellipse;whiteSpace=wrap;html=1;" vertex="1" parent="1">
          <mxGeometry x="365" y="390" width="120" height="80" as="geometry" />
        </mxCell>
        <mxCell id="VGCTA5ZCN7HaFnqmtO-Z-10" value="" style="endArrow=none;dashed=1;html=1;rounded=0;exitX=0.583;exitY=0;exitDx=0;exitDy=0;exitPerimeter=0;entryX=0.408;entryY=0.963;entryDx=0;entryDy=0;entryPerimeter=0;" edge="1" parent="1" source="pwKQtz1z0pktfYnzHD7Z-6" target="VGCTA5ZCN7HaFnqmtO-Z-9">
          <mxGeometry width="50" height="50" relative="1" as="geometry">
            <mxPoint x="448" y="528" as="sourcePoint" />
            <mxPoint x="492" y="552" as="targetPoint" />
            <Array as="points" />
          </mxGeometry>
        </mxCell>
        <mxCell id="VGCTA5ZCN7HaFnqmtO-Z-11" value="&amp;lt;&amp;lt;extends&amp;gt;&amp;gt;" style="edgeLabel;html=1;align=center;verticalAlign=middle;resizable=0;points=[];" vertex="1" connectable="0" parent="VGCTA5ZCN7HaFnqmtO-Z-10">
          <mxGeometry x="0.018" y="-2" relative="1" as="geometry">
            <mxPoint as="offset" />
          </mxGeometry>
        </mxCell>
        <mxCell id="VGCTA5ZCN7HaFnqmtO-Z-13" style="edgeStyle=none;rounded=0;orthogonalLoop=1;jettySize=auto;html=1;exitX=0;exitY=0.3333333333333333;exitDx=0;exitDy=0;exitPerimeter=0;entryX=1;entryY=0.5;entryDx=0;entryDy=0;" edge="1" parent="1" source="pwKQtz1z0pktfYnzHD7Z-2" target="pwKQtz1z0pktfYnzHD7Z-6">
          <mxGeometry relative="1" as="geometry">
            <mxPoint x="480" y="670" as="targetPoint" />
            <mxPoint x="780" y="370" as="sourcePoint" />
          </mxGeometry>
        </mxCell>
      </root>
    </mxGraphModel>
  </diagram>
</mxfile>
